<svg height="479pt" viewBox="0 0 479.99494 479" width="479pt" xmlns="http://www.w3.org/2000/svg"><path d="m95.996094 152.222656c0 13.257813-10.742188 24-24 24-13.253906 0-24-10.742187-24-24 0-13.253906 10.746094-24 24-24 13.257812 0 24 10.746094 24 24zm0 0" fill="#cdeef6"/><path d="m447.996094 336.222656c0 17.675782-14.324219 32-32 32-17.671875 0-32-14.324218-32-32 0-17.671875 14.328125-32 32-32 17.675781 0 32 14.328125 32 32zm0 0" fill="#cdeef6"/><g fill="#f4fd53"><path d="m399.996094 128.222656h16v16h-16zm0 0"/><path d="m399.996094 160.222656h16v16h-16zm0 0"/><path d="m383.996094 144.222656h16v16h-16zm0 0"/><path d="m415.996094 144.222656h16v16h-16zm0 0"/><path d="m55.996094 304.222656h16v16h-16zm0 0"/><path d="m55.996094 336.222656h16v16h-16zm0 0"/><path d="m39.996094 320.222656h16v16h-16zm0 0"/><path d="m71.996094 320.222656h16v16h-16zm0 0"/></g><path d="m287.996094 136.222656c0 35.34375-21.488282 64-48 64-26.511719 0-48-28.65625-48-64 0-48 48-128 48-128s48 80 48 128zm0 0" fill="#f98c96"/><path d="m287.996094 344.222656c0-35.34375-21.488282-64-48-64-26.511719 0-48 28.65625-48 64 0 48 48 128 48 128s48-80 48-128zm0 0" fill="#f98c96"/><path d="m135.996094 288.222656c35.34375 0 64-21.488281 64-48 0-26.511718-28.65625-48-64-48-48 0-128 48-128 48s80 48 128 48zm0 0" fill="#f98c96"/><path d="m343.996094 288.222656c-35.34375 0-64-21.488281-64-48 0-26.511718 28.65625-48 64-48 48 0 128 48 128 48s-80 48-128 48zm0 0" fill="#f98c96"/><path d="m231.996094 104.222656h16v96h-16zm0 0" fill="#e4544f"/><path d="m111.996094 232.222656h88v16h-88zm0 0" fill="#e4544f"/><path d="m279.996094 232.222656h80v16h-80zm0 0" fill="#e4544f"/><path d="m231.996094 272.222656h16v88h-16zm0 0" fill="#e4544f"/><path d="m375.996094 232.222656h16v16h-16zm0 0" fill="#e4544f"/><path d="m79.996094 232.222656h16v16h-16zm0 0" fill="#e4544f"/><path d="m231.996094 72.222656h16v16h-16zm0 0" fill="#e4544f"/><path d="m231.996094 376.222656h16v16h-16zm0 0" fill="#e4544f"/><path d="m159.996094 216.222656c15.511718 15.199219 40.367187 15.074219 55.71875-.28125 15.355468-15.351562 15.480468-40.207031.28125-55.71875-20.566406-20.566406-96-40-96-40s19.433594 75.433594 40 96zm0 0" fill="#67c086"/><path d="m319.996094 216.222656c-15.507813 15.199219-40.363282 15.074219-55.71875-.28125-15.351563-15.351562-15.476563-40.207031-.28125-55.71875 20.570312-20.566406 96-40 96-40s-19.429688 75.433594-40 96zm0 0" fill="#67c086"/><path d="m159.996094 264.222656c15.511718-15.199218 40.367187-15.070312 55.71875.28125 15.355468 15.355469 15.480468 40.210938.28125 55.71875-20.566406 20.570313-96 40-96 40s19.433594-75.429687 40-96zm0 0" fill="#67c086"/><path d="m319.996094 264.222656c-15.507813-15.199218-40.363282-15.070312-55.71875.28125-15.351563 15.355469-15.476563 40.210938-.28125 55.71875 20.570312 20.570313 96 40 96 40s-19.429688-75.429687-40-96zm0 0" fill="#67c086"/><path d="m279.996094 240.222656c0 22.09375-17.90625 40-40 40-22.089844 0-40-17.90625-40-40 0-22.089844 17.910156-40 40-40 22.09375 0 40 17.910156 40 40zm0 0" fill="#ffd782"/><path d="m476.117188 233.367188c-3.273438-1.96875-79.097657-47.054688-128.863282-48.96875 8.09375-20.289063 14.9375-41.054688 20.496094-62.183594.707031-2.742188-.089844-5.652344-2.089844-7.652344-2.003906-2.003906-4.914062-2.796875-7.65625-2.089844-21.125 5.558594-41.890625 12.402344-62.183594 20.496094-1.910156-49.769531-47-125.601562-48.96875-128.863281-1.550781-2.257813-4.113281-3.609375-6.855468-3.609375-2.738282 0-5.300782 1.351562-6.855469 3.609375-1.96875 3.269531-47.054687 79.09375-48.96875 128.863281-20.289063-8.089844-41.058594-14.933594-62.183594-20.496094-2.742187-.707031-5.652343.089844-7.652343 2.09375s-2.792969 4.917969-2.082032 7.65625c5.507813 21.140625 12.347656 41.910156 20.472656 62.183594-49.777343 1.921875-125.601562 46.992188-128.847656 48.960938-2.40625 1.449218-3.878906 4.050781-3.878906 6.855468 0 2.808594 1.472656 5.410156 3.878906 6.855469 3.269532 1.96875 79.070313 47.042969 128.847656 48.960937-8.125 20.277344-14.964843 41.046876-20.472656 62.183594-.617187 2.398438-.09375 4.945313 1.421875 6.898438 1.511719 1.957031 3.847657 3.101562 6.320313 3.101562.671875 0 1.339844-.085937 1.992187-.246094 21.128907-5.558593 41.894531-12.40625 62.183594-20.496093 1.914063 49.765625 47 125.597656 48.96875 128.863281 1.449219 2.40625 4.050781 3.878906 6.855469 3.878906 2.808594 0 5.410156-1.472656 6.855468-3.878906 1.96875-3.273438 47.058594-79.097656 48.96875-128.863281 20.292969 8.089843 41.058594 14.933593 62.183594 20.496093.652344.160157 1.320313.246094 1.992188.246094 2.476562.003906 4.808594-1.140625 6.324218-3.09375 1.519532-1.957031 2.046876-4.5 1.429688-6.898437-5.554688-21.125-12.402344-41.890625-20.496094-62.183594 49.765625-1.910156 125.597656-47 128.863282-48.96875 2.40625-1.445313 3.878906-4.046875 3.878906-6.855469 0-2.804687-1.472656-5.40625-3.878906-6.855468zm-144 110.273437c-14.0625-4.425781-27.839844-9.722656-41.246094-15.855469-7.746094-3.214844-14.90625-7.679687-21.203125-13.21875-7.675781-7.972656-10.71875-19.332031-8.0625-30.078125.121093-.578125.367187-1.136719.535156-1.710937 8.730469-4.5625 15.855469-11.6875 20.417969-20.417969.640625-.191406 1.214844-.441406 1.910156-.589844 10.695312-2.585937 21.96875.472657 29.890625 8.109375 5.539063 6.300782 10.011719 13.46875 13.230469 21.21875 6.125 13.402344 11.417968 27.171875 15.839844 41.230469l-25.761719-25.761719-11.308594 11.3125zm-113.671876-58.953125c2.597657 10.691406-.460937 21.96875-8.105468 29.878906-6.300782 5.542969-13.46875 10.011719-21.222656 13.226563-13.394532 6.128906-27.160157 11.421875-41.214844 15.839843l25.75-25.753906-11.3125-11.3125-25.78125 25.785156c7.765625-23.832031 18.75-52.128906 29.09375-62.472656 8.449218-8.09375 20.621094-10.972656 31.800781-7.519531 4.558594 8.726563 11.675781 15.847656 20.398437 20.410156.195313.65625.449219 1.214844.59375 1.917969zm-70.550781-147.878906c14.0625 4.425781 27.839844 9.71875 41.246094 15.855468 7.746094 3.210938 14.90625 7.675782 21.199219 13.214844 7.679687 7.976563 10.722656 19.335938 8.066406 30.082032-.121094.574218-.367188 1.136718-.535156 1.710937-8.730469 4.5625-15.855469 11.6875-20.417969 20.417969-11.179687 3.453125-23.351563.574218-31.800781-7.523438-10.34375-10.34375-21.328125-38.636718-29.09375-62.46875l25.78125 25.78125 11.3125-11.3125zm124.101563 103.414062c0 17.675782-14.324219 32-32 32-17.671875 0-32-14.324218-32-32 0-17.671875 14.328125-32 32-32 17.675781 0 32 14.328125 32 32zm12.265625-21.597656c-.578125-.121094-1.136719-.367188-1.710938-.535156-4.5625-8.730469-11.683593-15.855469-20.410156-20.417969-.191406-.640625-.445313-1.214844-.589844-1.921875-2.597656-10.6875.460938-21.964844 8.101563-29.878906 6.300781-5.542969 13.472656-10.011719 21.226562-13.222656 13.394532-6.136719 27.164063-11.429688 41.222656-15.847657l-25.761718 25.757813 11.3125 11.3125 25.761718-25.757813c-4.421874 14.066407-9.714843 27.84375-15.847656 41.253907-3.21875 7.742187-7.6875 14.898437-13.226562 21.191406-7.976563 7.675781-19.332032 10.722656-30.078125 8.066406zm-44.265625-194.167969c13.015625 23.765625 40 77.277344 40 111.765625 0 1.417969-.039063 2.769532-.109375 4.058594-7.863281 3.644531-15.128907 8.460938-21.546875 14.285156-4.53125 4.585938-8.054688 10.070313-10.34375 16.097656v-66.441406h-16v66.464844c-2.28125-6.039062-5.804688-11.53125-10.34375-16.121094-6.414063-5.824218-13.679688-10.640625-21.542969-14.285156-.070313-1.296875-.113281-2.640625-.113281-4.058594 0-34.488281 26.984375-88 40-111.765625zm-104 255.765625c-34.488282 0-88-26.984375-111.765625-40 23.765625-13.015625 77.277343-40 111.765625-40 1.410156 0 2.746094 0 4 .113282 3.679687 7.851562 8.503906 15.113281 14.320312 21.542968 4.613282 4.554688 10.136719 8.078125 16.210938 10.34375h-58.53125v16h58.585937c-6.082031 2.265625-11.617187 5.789063-16.242187 10.34375-5.816406 6.433594-10.640625 13.691406-14.320313 21.546875-1.277343.070313-2.613281.109375-4.023437.109375zm104 175.769532c-13.015625-23.769532-40-77.28125-40-111.769532 0-1.414062 0-2.765625.113281-4.054687 7.863281-3.644531 15.125-8.464844 21.542969-14.289063 4.527344-4.574218 8.050781-10.042968 10.34375-16.054687v50.398437h16v-50.460937c2.28125 6.035156 5.808594 11.527343 10.34375 16.117187 6.417968 5.828125 13.683594 10.644532 21.546875 14.289063.070312 1.296875.109375 2.640625.109375 4.054687 0 34.488282-26.984375 88-40 111.769532zm104-175.769532c-1.421875 0-2.765625-.039062-4.046875-.109375-3.632813-7.871093-8.453125-15.140625-14.296875-21.546875-4.585938-4.53125-10.070313-8.058594-16.101563-10.34375h50.445313v-16h-50.46875c6.039062-2.28125 11.53125-5.804687 16.125-10.34375 5.84375-6.402344 10.667968-13.667968 14.296875-21.542968 1.28125-.070313 2.625-.113282 4.046875-.113282 34.488281 0 88 26.984375 111.769531 40-23.769531 13.015625-77.28125 40-111.769531 40zm0 0"/><path d="m375.996094 232.222656h16v16h-16zm0 0"/><path d="m79.996094 232.222656h16v16h-16zm0 0"/><path d="m231.996094 72.222656h16v16h-16zm0 0"/><path d="m231.996094 376.222656h16v16h-16zm0 0"/><path d="m39.996094 152.222656c0 17.675782 14.328125 32 32 32 17.675781 0 32-14.324218 32-32 0-17.671875-14.324219-32-32-32-17.671875 0-32 14.328125-32 32zm32-16c8.839844 0 16 7.164063 16 16 0 8.835938-7.160156 16-16 16-8.835938 0-16-7.164062-16-16 0-8.835937 7.164062-16 16-16zm0 0"/><path d="m455.996094 336.222656c0-22.089844-17.90625-40-40-40-22.089844 0-40 17.910156-40 40 0 22.09375 17.910156 40 40 40 22.082031-.023437 39.976562-17.917968 40-40zm-64 0c0-13.253906 10.746094-24 24-24 13.257812 0 24 10.746094 24 24 0 13.257813-10.742188 24-24 24-13.253906 0-24-10.742187-24-24zm0 0"/><path d="m399.996094 128.222656h16v16h-16zm0 0"/><path d="m399.996094 160.222656h16v16h-16zm0 0"/><path d="m383.996094 144.222656h16v16h-16zm0 0"/><path d="m415.996094 144.222656h16v16h-16zm0 0"/><path d="m55.996094 304.222656h16v16h-16zm0 0"/><path d="m55.996094 336.222656h16v16h-16zm0 0"/><path d="m39.996094 320.222656h16v16h-16zm0 0"/><path d="m71.996094 320.222656h16v16h-16zm0 0"/></svg>