<svg height="480pt" viewBox="0 -36 480.00002 480" width="480pt" xmlns="http://www.w3.org/2000/svg"><path d="m8 56.042969v296c-.027344 23.566406 16.816406 43.777343 40 48h424v-344h-368c0-26.507813-21.492188-48-48-48s-48 21.492187-48 48zm0 0" fill="#50b3c9"/><path d="m112 352.042969h-16c0-22.089844-17.910156-40-40-40s-40 17.910156-40 40h-16c0-30.925781 25.070312-56 56-56s56 25.074219 56 56zm0 0" fill="#cdeef6"/><path d="m56 408.042969c-30.914062-.035157-55.9648438-25.085938-56-56 0-4.417969 3.582031-8 8-8s8 3.582031 8 8c.027344 22.082031 17.917969 39.976562 40 40 4.417969 0 8 3.582031 8 8s-3.582031 8-8 8zm0 0" fill="#cdeef6"/><path d="m96 56.042969h16v296h-16zm0 0" fill="#cdeef6"/><path d="m344 368.042969 16-24 24-16 24-8 16-16-24-16-8-24-32-16-16-16h-16l-8 16v24l-16 16 8 24v32l8 16zm0 0" fill="#ffd782"/><path d="m248 168.042969 32 8 16 24-8 16-24 8-32-16-32-24zm0 0" fill="#ffd782"/><path d="m208 136.042969-24 8h-32l-16-16 32-16zm0 0" fill="#ffd782"/><path d="m352 128.042969h80v48h-80zm0 0" fill="#e4544f"/><g fill="#cdeef6"><path d="m424 80.042969h16v16h-16zm0 0"/><path d="m392 80.042969h16v16h-16zm0 0"/><path d="m96 296.101562c0-3.257812-1.527344-32.058593-40-32.058593v-16c44.296875 0 56 31.402343 56 48h-8zm0 0"/><path d="m96.160156 233.644531c-.289062-1.375-7.359375-33.601562-40.160156-33.601562v-16c27.292969.179687 50.667969 19.601562 55.839844 46.402343zm0 0"/><path d="m224 264.042969c-5.660156.042969-11.148438-1.941407-15.472656-5.597657-3.261719-3.199218-8.484375-3.199218-11.742188 0-8.960937 7.464844-21.976562 7.464844-30.9375 0-1.535156-1.570312-3.652344-2.4375-5.847656-2.402343v-16c5.65625-.039063 11.144531 1.949219 15.464844 5.601562 3.25 3.199219 8.46875 3.199219 11.71875 0 8.964844-7.464843 21.980468-7.464843 30.945312 0 1.546875 1.566407 3.667969 2.433594 5.871094 2.398438zm0 0"/><path d="m320 152.042969c-5.660156.042969-11.148438-1.941407-15.472656-5.597657-3.261719-3.199218-8.484375-3.199218-11.742188 0-8.960937 7.464844-21.976562 7.464844-30.9375 0-1.535156-1.570312-3.652344-2.4375-5.847656-2.402343v-16c5.65625-.039063 11.144531 1.949219 15.464844 5.601562 3.25 3.199219 8.46875 3.199219 11.71875 0 8.964844-7.464843 21.980468-7.464843 30.945312 0 1.546875 1.566407 3.667969 2.433594 5.871094 2.398438zm0 0"/><path d="m280 304.042969c-5.660156.042969-11.148438-1.941407-15.472656-5.597657-3.261719-3.199218-8.484375-3.199218-11.742188 0-8.960937 7.464844-21.976562 7.464844-30.9375 0-1.535156-1.570312-3.652344-2.4375-5.847656-2.402343v-16c5.65625-.039063 11.144531 1.949219 15.464844 5.601562 3.25 3.199219 8.46875 3.199219 11.71875 0 8.964844-7.464843 21.980468-7.464843 30.945312 0 1.546875 1.566407 3.667969 2.433594 5.871094 2.398438zm0 0"/><path d="m216 336.042969c-5.660156.042969-11.148438-1.941407-15.472656-5.597657-3.261719-3.199218-8.484375-3.199218-11.742188 0-8.960937 7.464844-21.976562 7.464844-30.9375 0-1.535156-1.570312-3.652344-2.4375-5.847656-2.402343v-16c5.65625-.039063 11.144531 1.949219 15.464844 5.601562 3.25 3.199219 8.46875 3.199219 11.71875 0 8.964844-7.464843 21.980468-7.464843 30.945312 0 1.546875 1.566407 3.667969 2.433594 5.871094 2.398438zm0 0"/><path d="m280 112.042969c-5.660156.042969-11.148438-1.941407-15.472656-5.597657-3.261719-3.199218-8.484375-3.199218-11.742188 0-8.960937 7.464844-21.976562 7.464844-30.9375 0-1.535156-1.570312-3.652344-2.4375-5.847656-2.402343v-16c5.65625-.039063 11.144531 1.949219 15.464844 5.601562 3.25 3.199219 8.46875 3.199219 11.71875 0 8.964844-7.464843 21.980468-7.464843 30.945312 0 1.546875 1.566407 3.667969 2.433594 5.871094 2.398438zm0 0"/></g><path d="m344 128.042969h16v144h-16zm0 0" fill="#394d5c"/><path d="m111.433594 48.042969c-4.175782-29.089844-30.128906-50.003907-59.445313-47.898438-29.3125 2.105469-52.0117185 26.511719-51.988281 55.898438v296c.0429688 27.449219 19.671875 50.953125 46.671875 55.890625l433.328125.109375v-360zm-95.433594 8c0-22.089844 17.910156-40 40-40s40 17.910156 40 40v144.671875c-10.386719-10.945313-24.914062-17-40-16.671875v16c19.382812.289062 35.984375 13.949219 40 32.914062v28.261719c-11.222656-9.226562-25.488281-13.925781-40-13.175781v16c38.472656 0 39.960938 28.800781 40 32.058593v16.800782c-10.507812-10.800782-24.933594-16.890625-40-16.890625s-29.492188 6.089843-40 16.890625zm448 336h-415.304688c-19.027343-3.855469-32.703124-20.585938-32.695312-40 0-22.089844 17.910156-40 40-40s40 17.910156 40 40h16v-288h352zm0 0"/><path d="m312 248.042969v20.6875l-13.65625 13.65625c-2.140625 2.144531-2.890625 5.3125-1.9375 8.1875l7.59375 22.765625v30.703125c-.011719 1.238281.261719 2.464843.800781 3.578125l8 16c.953125 1.894531 2.617188 3.332031 4.632813 4l24 8c3.417968 1.140625 7.179687-.148438 9.183594-3.144532l15.109374-22.671874 21.777344-14.519532 22.984375-7.664062c1.175781-.394532 2.246094-1.054688 3.128907-1.929688l16-16c1.695312-1.691406 2.539062-4.058594 2.304687-6.441406-.238281-2.386719-1.527344-4.539062-3.523437-5.871094l-21.71875-14.476562-7.128907-21.394532c-.671875-2.011718-2.109375-3.675781-4-4.632812l-30.839843-15.414062-4.710938-4.730469v-52.6875h72c4.417969 0 8-3.582031 8-8v-48c0-4.417969-3.582031-8-8-8h-80c-4.417969 0-8 3.582031-8 8v96h-16c-3.046875-.015625-5.839844 1.699219-7.199219 4.425781l-8 16c-.539062 1.113281-.8125 2.335938-.800781 3.574219zm112-80h-64v-32h64zm-98.34375 109.65625c1.5-1.5 2.34375-3.535157 2.34375-5.65625v-22.109375l4.945312-9.890625h7.742188l3.3125 3.3125v28.6875h16v-15.054688l25.457031 12.726563 6.949219 20.859375c.5625 1.6875 1.671875 3.140625 3.152344 4.125l15.882812 10.585937-7.761718 7.765625-22.207032 7.410157c-.679687.21875-1.320312.53125-1.914062.925781l-24 16c-.875.585937-1.628906 1.339843-2.214844 2.21875l-12.609375 18.917969-15.0625-5.015626-5.671875-11.351562v-30.113281c0-.859375-.136719-1.710938-.40625-2.527344l-6.402344-19.304687zm0 0"/><path d="m302.65625 195.605469-16-24c-1.105469-1.65625-2.785156-2.839844-4.710938-3.320313l-32-8c-1.476562-.378906-3.03125-.316406-4.472656.175782l-48 16c-2.820312.941406-4.886718 3.371093-5.363281 6.304687s.714844 5.890625 3.089844 7.679687l32 24c.386719.300782.796875.566407 1.226562.800782l32 16c1.113281.539062 2.335938.8125 3.574219.796875.859375 0 1.714844-.136719 2.527344-.414063l24-8c2.015625-.667968 3.679687-2.105468 4.632812-4l8-16c1.285156-2.570312 1.09375-5.632812-.503906-8.023437zm-20.328125 13.902343-17.710937 5.898438-28.394532-14.195312-19.199218-14.398438 31.304687-10.398438 26.734375 6.679688 11.714844 17.597656zm0 0"/><path d="m130.34375 133.699219 16 16c1.5 1.5 3.535156 2.34375 5.65625 2.34375h32c.859375 0 1.714844-.140625 2.527344-.414063l24-8c2.941406-1 5.035156-3.605468 5.378906-6.691406s-1.128906-6.089844-3.777344-7.710938l-40-24c-2.34375-1.410156-5.25-1.523437-7.695312-.300781l-32 16c-2.296875 1.148438-3.902344 3.332031-4.3125 5.867188-.410156 2.535156.417968 5.113281 2.230468 6.929687zm37.304688-12.535157 21.320312 12.800782-6.265625 2.078125h-27.390625l-5.808594-5.804688zm0 0"/><path d="m424 80.042969h16v16h-16zm0 0"/><path d="m392 80.042969h16v16h-16zm0 0"/><path d="m196.800781 258.445312c3.261719-3.199218 8.480469-3.199218 11.742188 0 4.320312 3.652344 9.800781 5.636719 15.457031 5.597657v-16c-2.203125.035156-4.324219-.832031-5.871094-2.398438-8.964844-7.464843-21.980468-7.464843-30.945312 0-3.25 3.199219-8.46875 3.199219-11.71875 0-4.320313-3.652343-9.808594-5.640625-15.464844-5.601562v16c2.195312-.035157 4.3125.832031 5.847656 2.402343 8.960938 7.464844 21.976563 7.464844 30.9375 0zm0 0"/><path d="m271.464844 133.644531c-4.320313-3.652343-9.808594-5.640625-15.464844-5.601562v16c2.195312-.035157 4.3125.832031 5.847656 2.402343 8.960938 7.464844 21.976563 7.464844 30.9375 0 3.257813-3.199218 8.480469-3.199218 11.742188 0 4.324218 3.65625 9.8125 5.640626 15.472656 5.597657v-16c-2.203125.035156-4.324219-.832031-5.871094-2.398438-8.964844-7.464843-21.980468-7.464843-30.945312 0-3.25 3.199219-8.46875 3.199219-11.71875 0zm0 0"/><path d="m258.65625 280.042969c-5.660156-.042969-11.148438 1.945312-15.472656 5.601562-3.25 3.199219-8.46875 3.199219-11.71875 0-4.320313-3.652343-9.808594-5.640625-15.464844-5.601562v16c2.195312-.035157 4.3125.832031 5.847656 2.402343 8.960938 7.464844 21.976563 7.464844 30.9375 0 3.257813-3.199218 8.480469-3.199218 11.742188 0 4.324218 3.65625 9.8125 5.640626 15.472656 5.597657v-16c-2.203125.035156-4.324219-.832031-5.871094-2.398438-4.324218-3.65625-9.8125-5.644531-15.472656-5.601562zm0 0"/><path d="m194.65625 312.042969c-5.660156-.042969-11.148438 1.945312-15.472656 5.601562-3.25 3.199219-8.46875 3.199219-11.71875 0-4.320313-3.652343-9.808594-5.640625-15.464844-5.601562v16c2.195312-.035157 4.3125.832031 5.847656 2.402343 8.960938 7.464844 21.976563 7.464844 30.9375 0 3.257813-3.199218 8.480469-3.199218 11.742188 0 4.324218 3.65625 9.8125 5.640626 15.472656 5.597657v-16c-2.203125.035156-4.324219-.832031-5.871094-2.398438-4.324218-3.65625-9.8125-5.644531-15.472656-5.601562zm0 0"/><path d="m237.3125 112.042969c5.660156.042969 11.148438-1.941407 15.472656-5.597657 3.257813-3.199218 8.480469-3.199218 11.742188 0 4.324218 3.65625 9.8125 5.640626 15.472656 5.597657v-16c-2.203125.035156-4.324219-.832031-5.871094-2.398438-8.964844-7.464843-21.980468-7.464843-30.945312 0-3.25 3.199219-8.46875 3.199219-11.71875 0-4.320313-3.652343-9.808594-5.640625-15.464844-5.601562v16c2.195312-.035157 4.3125.832031 5.847656 2.402343 4.320313 3.652344 9.804688 5.636719 15.464844 5.597657zm0 0"/></svg>