<svg height="480pt" viewBox="0 0 480.07285 480" width="480pt" xmlns="http://www.w3.org/2000/svg"><path d="m224 80.035156h80v48h-80zm0 0" fill="#c83528"/><path d="m8 336.035156h464v136h-464zm0 0" fill="#cdeef6"/><path d="m216 72.035156h16v104h-16zm0 0" fill="#394d5c"/><path d="m472 368.035156c-29.015625 0-26.984375 40-56 40s-26.984375-40-56-40-35 40-64 40-26.992188-40-56-40-27 40-56 40-27.007812-40-56-40-35.007812 40-64 40-27.007812-40-56-40v104h464zm0 0" fill="#50b3c9"/><path d="m152 432.035156h32v16h-32zm0 0" fill="#cdeef6"/><path d="m224 408.035156h32v16h-32zm0 0" fill="#cdeef6"/><path d="m288 432.035156h32v16h-32zm0 0" fill="#cdeef6"/><path d="m344 408.035156h32v16h-32zm0 0" fill="#cdeef6"/><path d="m88 424.035156h32v16h-32zm0 0" fill="#cdeef6"/><path d="m392 336.035156h-304l-48-64h328zm0 0" fill="#ffd782"/><path d="m184 176.035156h144v96h-144zm0 0" fill="#6bd4b8"/><path d="m96 296.035156h16v16h-16zm0 0" fill="#f98c96"/><path d="m128 296.035156h16v16h-16zm0 0" fill="#f98c96"/><path d="m192 272.035156 32 32h156l-12-32zm0 0" fill="#df6437"/><g fill="#394d5c"><path d="m48 232.035156h16v40h-16zm0 0"/><path d="m80 240.035156h16v32h-16zm0 0"/><path d="m56 232.035156h80v16h-80zm0 0"/><path d="m112 240.035156h16v32h-16zm0 0"/><path d="m88 232.035156h32v16h-32zm0 0"/><path d="m144 240.035156h16v32h-16zm0 0"/><path d="m120 232.035156h32v16h-32zm0 0"/><path d="m152 232.035156h32v16h-32zm0 0"/></g><path d="m216 208.035156h80v32h-80zm0 0" fill="#ffd782"/><path d="m184 240.035156h144v32h-144zm0 0" fill="#f98c96"/><path d="m360 200.035156h88v16h-88zm0 0" fill="#cfdfe8"/><path d="m384 232.035156h88v16h-88zm0 0" fill="#cfdfe8"/><path d="m464 200.035156h16v16h-16zm0 0" fill="#cfdfe8"/><path d="m160 128.035156v-8c.574219-6.523437-1.769531-12.96875-6.402344-17.597656-4.628906-4.632812-11.074218-6.976562-17.597656-6.402344h-8c-4.742188-15.199218-16-24-40-24-17.816406 0-36.144531 7.457032-40 24h-8c-6.417969-.179687-12.628906 2.292969-17.167969 6.832032-4.542969 4.539062-7.011719 10.75-6.832031 17.167968v8zm0 0" fill="#50b3c9"/><path d="m472 64.035156v-8c.574219-6.523437-1.769531-12.96875-6.402344-17.597656-4.628906-4.632812-11.074218-6.976562-17.597656-6.402344h-8c-4.742188-15.199218-16-24-40-24-17.816406 0-36.144531 7.457032-40 24h-8c-6.417969-.179687-12.628906 2.292969-17.167969 6.832032-4.542969 4.539062-7.011719 10.75-6.832031 17.167968v8zm0 0" fill="#50b3c9"/><path d="m152 432.035156h32v16h-32zm0 0"/><path d="m224 408.035156h32v16h-32zm0 0"/><path d="m288 432.035156h32v16h-32zm0 0"/><path d="m344 408.035156h32v16h-32zm0 0"/><path d="m88 424.035156h32v16h-32zm0 0"/><path d="m375.496094 269.226562c-1.171875-3.121093-4.160156-5.191406-7.496094-5.191406h-32v-88c0-4.417968-3.582031-8-8-8h-96v-32h72c4.417969 0 8-3.582031 8-8v-48c0-4.417968-3.582031-8-8-8h-88v96h-32c-4.417969 0-8 3.582032-8 8v56h-128v32h-8c-3.03125 0-5.800781 1.714844-7.15625 4.421875-1.355469 2.710938-1.0625 5.957031.757812 8.378907l38.398438 51.199218h-72v152h480v-152h-82.457031zm-143.496094-181.191406h64v32h-64zm130.457031 192 6 16h-141.144531l-16-16zm-170.457031-96h128v48h-16v-32h-96v32h-16zm96 32v16h-64v-16zm-96 32h128v16h-128zm-32 0h16v16h-16zm-32 0h16v16h-16zm-32 0h16v16h-16zm-32 0h16v16h-16zm-8 32h132.6875l29.65625 29.65625c1.5 1.5 3.535156 2.34375 5.65625 2.34375h150.457031l6 16h-288.457031zm408 184h-448v-86.222656c5.589844 3.734375 10.179688 8.785156 13.367188 14.703125 7.082031 10.480469 15.878906 23.519531 34.632812 23.519531 18.128906 0 28.695312-12.078125 38.023438-22.726562 8.113281-9.273438 15.113281-17.273438 25.976562-17.273438 9.769531 0 14.265625 5.953125 21.367188 16.480469 7.105468 10.527344 15.878906 23.519531 34.632812 23.519531s27.550781-13.039062 34.632812-23.519531c7.078126-10.480469 11.589844-16.480469 21.367188-16.480469s14.265625 5.953125 21.367188 16.480469c7.105468 10.527344 15.871093 23.519531 34.632812 23.519531 18.136719 0 28.695312-12.078125 38.023438-22.726562 8.105468-9.273438 15.113281-17.273438 25.976562-17.273438 9.785156 0 14.273438 5.953125 21.367188 16.472656 7.097656 10.519532 15.871093 23.527344 34.632812 23.527344s27.558594-13.039062 34.632812-23.527344c3.1875-5.917968 7.777344-10.960937 13.367188-14.695312zm0-103.015625c-11.5 3.71875-21.066406 11.816407-26.632812 22.542969-7.09375 10.523438-11.582032 16.472656-21.367188 16.472656s-14.273438-5.949218-21.367188-16.472656c-7.097656-10.519531-15.871093-23.527344-34.632812-23.527344-18.136719 0-28.695312 12.082032-38.023438 22.730469-8.105468 9.269531-15.113281 17.269531-25.976562 17.269531-9.777344 0-14.265625-5.949218-21.367188-16.480468-7.105468-10.527344-15.871093-23.519532-34.632812-23.519532s-27.550781 13.042969-34.632812 23.519532c-7.078126 10.480468-11.589844 16.480468-21.367188 16.480468s-14.265625-5.949218-21.367188-16.480468c-7.105468-10.527344-15.878906-23.519532-34.632812-23.519532-18.128906 0-28.695312 12.082032-38.023438 22.730469-8.113281 9.269531-15.113281 17.269531-25.976562 17.269531-9.769531 0-14.265625-5.949218-21.367188-16.480468-5.570312-10.71875-15.140624-18.8125-26.632812-22.535157v-16.984375h448zm0 0"/><path d="m96 296.035156h16v16h-16zm0 0"/><path d="m128 296.035156h16v16h-16zm0 0"/><path d="m360 200.035156h88v16h-88zm0 0"/><path d="m384 232.035156h88v16h-88zm0 0"/><path d="m464 200.035156h16v16h-16zm0 0"/><path d="m160 136.035156c4.417969 0 8-3.582031 8-8v-8c.605469-8.65625-2.570312-17.152344-8.710938-23.289062-6.136718-6.136719-14.632812-9.3125-23.289062-8.710938h-2.488281c-7.273438-16.132812-22.222657-24-45.511719-24-21.839844 0-39.023438 9.226563-45.695312 24h-2.304688c-8.542969-.191406-16.796875 3.117188-22.839844 9.160156-6.042968 6.046876-9.351562 14.296876-9.160156 22.839844v8c0 4.417969 3.582031 8 8 8zm-120-32h8c3.71875 0 6.949219-2.5625 7.792969-6.183594 3.0625-13.152343 19.269531-17.816406 32.207031-17.816406 23.414062 0 29.390625 8.800782 32.359375 18.402344 1.050781 3.335938 4.144531 5.601562 7.640625 5.597656h8c4.386719-.542968 8.78125.96875 11.90625 4.09375 3.128906 3.125 4.636719 7.519532 4.09375 11.90625h-128c-.199219-4.300781 1.421875-8.488281 4.464844-11.53125 3.046875-3.046875 7.234375-4.667968 11.535156-4.46875zm0 0"/><path d="m448 24.035156h-2.488281c-7.273438-16.132812-22.222657-23.9999998-45.511719-23.9999998-21.839844 0-39.023438 9.2265628-45.695312 23.9999998h-2.304688c-8.542969-.191406-16.796875 3.117188-22.839844 9.160156-6.042968 6.046876-9.351562 14.296876-9.160156 22.839844v8c0 4.417969 3.582031 8 8 8h144c4.417969 0 8-3.582031 8-8v-8c.605469-8.65625-2.570312-17.152344-8.710938-23.289062-6.136718-6.136719-14.632812-9.3125-23.289062-8.710938zm-112 32c-.199219-4.300781 1.421875-8.488281 4.464844-11.53125 3.046875-3.046875 7.234375-4.667968 11.535156-4.46875h8c3.71875 0 6.949219-2.5625 7.792969-6.183594 3.0625-13.152343 19.269531-17.816406 32.207031-17.816406 23.414062 0 29.390625 8.800782 32.359375 18.402344 1.050781 3.335938 4.144531 5.601562 7.640625 5.597656h8c4.386719-.542968 8.78125.96875 11.90625 4.09375 3.128906 3.125 4.636719 7.519532 4.09375 11.90625zm0 0"/></svg>